<svg xmlns="http://www.w3.org/2000/svg" width="150" height="46" viewBox="0 0 150 46">
    <g fill="none" fill-rule="evenodd">
        <g fill="#170C11">
            <path d="M55.84 9.982h4.509v7.7c.482-.57 1.124-1.01 1.923-1.317a6.75 6.75 0 0 1 2.429-.458c1.703 0 3.063.507 4.084 1.52 1.017 1.016 1.53 2.515 1.53 4.502v9.19h-4.51v-8.494c0-.865-.222-1.54-.663-2.028-.441-.485-1.029-.729-1.766-.729-.484 0-.914.09-1.292.27a2.79 2.79 0 0 0-.947.712c-.252.297-.442.64-.567 1.032-.128.39-.189.807-.189 1.25v7.987H55.84V9.982M71.985 16.256h4.54v8.557c0 .844.206 1.51.615 1.996.41.486 1.015.728 1.813.728.463 0 .873-.09 1.232-.269a2.9 2.9 0 0 0 .914-.713c.253-.296.441-.644.566-1.045a4.06 4.06 0 0 0 .19-1.236v-8.018h4.51V31.12h-4.352l-.126-1.585c-.484.57-1.12 1.04-1.908 1.41a5.756 5.756 0 0 1-2.476.555c-1.703 0-3.048-.507-4.035-1.52-.989-1.015-1.483-2.515-1.483-4.501v-9.222M93.093 27.506c.25.106.529.186.834.238.306.052.73.08 1.278.08 1.198 0 2.13-.392 2.79-1.173.664-.782.994-1.807.994-3.075 0-.463-.058-.918-.174-1.362a3.93 3.93 0 0 0-.52-1.189 2.797 2.797 0 0 0-.899-.856c-.368-.222-.813-.333-1.34-.333-1.01 0-1.756.282-2.24.84-.483.56-.723 1.306-.723 2.235v4.595zM88.551 9.982h4.542v7.382c.419-.443.991-.792 1.717-1.045a6.53 6.53 0 0 1 2.159-.38c1.052 0 1.988.201 2.808.602a6.04 6.04 0 0 1 2.065 1.632 7.377 7.377 0 0 1 1.278 2.378c.293.897.442 1.852.442 2.867 0 1.204-.195 2.314-.584 3.327a7.159 7.159 0 0 1-1.687 2.599c-.737.718-1.64 1.28-2.713 1.68-1.072.4-2.291.601-3.657.601-1.261 0-2.454-.116-3.578-.349-1.126-.231-2.058-.474-2.792-.728V9.982zM109.594 27.189c.588.4 1.461.601 2.619.601 1.112 0 1.99-.374 2.631-1.123.642-.75.962-1.749.962-2.996 0-.487-.058-.961-.173-1.426a3.678 3.678 0 0 0-.536-1.22 2.703 2.703 0 0 0-.946-.84c-.39-.21-.869-.317-1.435-.317a3.04 3.04 0 0 0-1.341.285c-.387.19-.714.444-.977.76a3.386 3.386 0 0 0-.599 1.08 3.794 3.794 0 0 0-.205 1.235v3.96zm-4.509-10.933h4.352c.042.274.072.544.095.807l.062.81a4.705 4.705 0 0 1 1.86-1.412 5.914 5.914 0 0 1 2.366-.49c1.072 0 2.018.21 2.838.634a6.07 6.07 0 0 1 2.05 1.695c.546.708.955 1.52 1.23 2.44.272.92.41 1.865.41 2.836 0 1.373-.233 2.568-.694 3.581-.462 1.015-1.063 1.849-1.798 2.504a7.271 7.271 0 0 1-2.49 1.458 8.45 8.45 0 0 1-2.745.475c-.715 0-1.303-.063-1.765-.19a24.531 24.531 0 0 1-1.262-.38v6.433h-4.509v-21.2zM121.607 31.12h4.542V16.255h-4.542zM132.695 23.67l-5.394-7.414h5.425l2.649 3.96 2.68-3.96h4.95l-5.202 7.099 5.676 7.764h-5.423l-2.933-4.278-2.965 4.278h-4.95l5.487-7.448M126.527 12.012a2.636 2.636 0 0 1-2.63 2.642 2.636 2.636 0 0 1-2.628-2.642 2.636 2.636 0 0 1 2.629-2.642 2.636 2.636 0 0 1 2.63 2.642M149.828 28.951a2.636 2.636 0 0 1-2.629 2.643 2.636 2.636 0 0 1-2.63-2.643 2.636 2.636 0 0 1 2.63-2.642 2.636 2.636 0 0 1 2.63 2.642"/>
        </g>
        <path fill="#00A3DA" d="M41.66 22.417a14.685 14.685 0 0 0-1.211-1.471 14.647 14.647 0 0 1-5.22 6.027l.006.007a6.809 6.809 0 0 1-1.594 9.544c-3.095 2.199-7.4 1.49-9.614-1.583a154.3 154.3 0 0 1-.005-.007 14.8 14.8 0 0 1-7.432 2.956c.3.552.636 1.091 1.013 1.614 4.752 6.594 13.992 8.116 20.635 3.397 6.643-4.718 8.174-13.89 3.421-20.484"/>
        <path fill="#572A79" d="M20.615 19.31a14.632 14.632 0 0 0-4.398 5.446 14.68 14.68 0 0 0 3.993 3.011 6.805 6.805 0 0 0 .405-8.457"/>
        <path fill="#D8127D" d="M20.62 19.32c-.001-.004-.001-.006-.005-.01-1.893-2.627-5.314-3.525-8.201-2.356a14.58 14.58 0 0 0 2.596 6.336c.378.524.784 1.014 1.212 1.472a14.64 14.64 0 0 1 4.399-5.442"/>
        <path fill="#00A3DA" d="M14.867 30.131a6.904 6.904 0 0 0 5.347-2.356 14.715 14.715 0 0 1-3.992-3.013 14.661 14.661 0 0 0-1.355 5.37"/>
        <path fill="#AB2430" d="M25.625 25.397a6.807 6.807 0 0 0-2.558 3.492 14.96 14.96 0 0 0 5.412.474 14.66 14.66 0 0 0 1.3-5.242 6.887 6.887 0 0 0-4.154 1.276"/>
        <path fill="#D8127D" d="M29.776 24.125a14.657 14.657 0 0 1-1.297 5.238 14.8 14.8 0 0 0 6.75-2.387 6.893 6.893 0 0 0-5.453-2.851"/>
        <path fill="#D2DB2F" d="M24.025 34.935a14.624 14.624 0 0 0 4.454-5.572 14.96 14.96 0 0 1-5.412-.474 6.791 6.791 0 0 0 .958 6.046"/>
        <path fill="#84BF41" d="M29.632 21.085a14.503 14.503 0 0 0-1.581-4.725 14.79 14.79 0 0 0-6.611 2.375c1.894 2.62 5.309 3.516 8.192 2.35"/>
        <path fill="#D2DB2F" d="M27.04 14.746a14.684 14.684 0 0 0-5.203-4.483 6.804 6.804 0 0 0-.395 8.472 14.776 14.776 0 0 1 6.609-2.375 14.739 14.739 0 0 0-1.011-1.614"/>
        <path fill="#283278" d="M20.62 19.318a6.805 6.805 0 0 1-.41 8.45v.003c.915.472 1.872.847 2.857 1.12v-.002a6.807 6.807 0 0 1 2.558-3.492 6.889 6.889 0 0 1 4.152-1.276c.058-1.01.012-2.027-.141-3.036h-.004c-2.883 1.166-6.298.27-8.192-2.35a15.685 15.685 0 0 0-.82.583"/>
        <path fill="#00A3DA" d="M33.541 16.8l-.07-.018c-.105-.028-.21-.055-.317-.08l-.094-.023a15.342 15.342 0 0 0-.312-.07l-.08-.017a14.977 14.977 0 0 0-4.616-.232.38.38 0 0 1 .015.029l.045.087.069.133c.043.084.085.167.126.251.014.027.029.054.041.08l.043.09c.005.012.01.024.016.034l.019.041.065.144.059.13.104.239.013.03.03.072.015.038c.039.094.077.188.113.283l.01.025.033.084.024.063c.006.014.01.029.014.043a13.487 13.487 0 0 1 .112.315l.067.197.007.016.04.135.016.05c.033.106.064.212.095.32l.01.03c.003.019.01.037.014.056l.013.046.03.107v.002l.003.007.022.09a19.468 19.468 0 0 1 .102.415l.014.06c.003.006.003.012.004.017.008.038.015.077.024.115l.002.01c.03.142.058.284.084.427l.002.01.003.015c.023.128.044.256.064.385.49-.197.965-.455 1.414-.773a6.82 6.82 0 0 0 2.558-3.489c-.022-.006-.043-.013-.065-.018"/>
        <path fill="#572A79" d="M33.608 16.816a6.82 6.82 0 0 1-2.558 3.488 6.93 6.93 0 0 1-1.414.773v.004c.154 1.01.201 2.029.143 3.04a6.892 6.892 0 0 1 5.45 2.848l.04-.026a15.106 15.106 0 0 0 .745-.529l.086-.066c.095-.073.19-.147.284-.223l.077-.062a14.991 14.991 0 0 0 1.028-.926l.032-.03a14.582 14.582 0 0 0 2.93-4.165 14.725 14.725 0 0 0-6.843-4.126"/>
        <path fill="#AB2430" d="M20.615 19.31l.006.009v-.001a14.916 14.916 0 0 1 .818-.583h.002l-.005-.007a6.804 6.804 0 0 1 .4-8.465 14.948 14.948 0 0 0-8.266-1.587 14.655 14.655 0 0 0-1.155 8.278c2.887-1.169 6.307-.27 8.2 2.356"/>
        <path fill="#D8127D" d="M13.66 8.67c.136-.012.271-.024.407-.033.021 0 .043-.002.065-.004.334-.02.668-.027 1.002-.024h.065c.334.005.669.02 1.001.048l.061.005c.335.028.668.068 1 .118l.054.009c.334.052.666.116.995.19l.046.01c.332.077.66.165.987.264l.038.011c.328.1.652.212.972.335l.034.013c.32.124.637.26.95.405.01.006.022.01.033.016.157.074.312.15.466.23.347-.396.744-.76 1.193-1.079 3.096-2.199 7.4-1.49 9.614 1.583a6.787 6.787 0 0 1 .965 6.05 14.723 14.723 0 0 1 6.842 4.125l-.001.004c2.173-4.643 1.834-10.282-1.38-14.742C34.314-.39 25.075-1.913 18.431 2.806a14.642 14.642 0 0 0-4.852 5.848l.08.016"/>
        <path fill="#D2DB2F" d="M16.59 37.89a14.497 14.497 0 0 1-1.72-7.76 6.893 6.893 0 0 1-5.464-2.858 6.81 6.81 0 0 1 1.595-9.545 6.924 6.924 0 0 1 1.413-.772l.012-.006-.011.005a14.655 14.655 0 0 1 1.155-8.278l.089-.007h-.003a14.785 14.785 0 0 0-7.251 2.68c-6.644 4.72-8.176 13.89-3.424 20.486 3.215 4.46 8.482 6.598 13.61 6.056"/>
        <path fill="#84BF41" d="M23.067 28.89a14.885 14.885 0 0 1-2.852-1.114 6.904 6.904 0 0 1-5.348 2.356 14.51 14.51 0 0 0 1.723 7.76 14.8 14.8 0 0 0 7.434-2.958 6.792 6.792 0 0 1-.957-6.044"/>
    </g>
</svg>
